# xmcd
#
# Track frame offsets:
# 150
# 22040
# 42756
# 60783
# 77838
# 97062
# 118777
# 137474
# 154666
# 170964
# 189308
# 207081
# 226108
# 245703
# 262171
# 280602
# 300799
# 316506
#
# Disc length: 4378 seconds
#
# Revision: 0
# Processed by: cddbd v1.4PL0 Copyright (c) Steve Scherf et al.
# Submitted via: Axialis_AX_CDPlayer 2.6
#
DISCID=e5111812
DTITLE=wine street Dixie-Company - The winner is...
DYEAR=1900
DGENRE=
TTITLE0=At The Jazz Band Ball
TTITLE1=St. Louis Blues
TTITLE2=I Wish I Was In Peoria
TTITLE3=Creole Jazz
TTITLE4=Alexander's Ragtime Band
TTITLE5=Black And Tan Fantasy
TTITLE6=Eh, Là-Bas
TTITLE7=There'll Be Some Changes Made
TTITLE8=I Want A Little Girl
TTITLE9=Just A Closer Walk Thee
TTITLE10=The Old Rugged Cross
TTITLE11=When You Wore A Tulip
TTITLE12=Memphis Blues
TTITLE13=Higher Ground
TTITLE14=Buddy Bolden's Blues
TTITLE15=The Lonesoest Girl In Town
TTITLE16=South
TTITLE17="Das Millionenlied"
EXTD=
EXTT0=
EXTT1=
EXTT2=
EXTT3=
EXTT4=
EXTT5=
EXTT6=
EXTT7=
EXTT8=
EXTT9=
EXTT10=
EXTT11=
EXTT12=
EXTT13=
EXTT14=
EXTT15=
EXTT16=
EXTT17=
PLAYORDER=
